<?xml version="1.0" standalone="no"?>
<!DOCTYPE svg PUBLIC "-//W3C//DTD SVG 20010904//EN"
 "http://www.w3.org/TR/2001/REC-SVG-20010904/DTD/svg10.dtd">
<svg version="1.0" xmlns="http://www.w3.org/2000/svg"
 width="358.000000pt" height="358.000000pt" viewBox="0 0 358.000000 358.000000"
 preserveAspectRatio="xMidYMid meet">
<metadata>
Created by potrace 1.14, written by Peter Selinger 2001-2017
</metadata>
<g transform="translate(0.000000,358.000000) scale(0.100000,-0.100000)"
fill="#000000" stroke="none">
<path d="M1848 3319 c-18 -4 -50 -10 -70 -13 -80 -14 -155 -125 -176 -260 -8
-47 -6 -56 7 -59 13 -4 12 -5 -2 -6 -16 -1 -18 -11 -16 -96 3 -183 62 -386
149 -519 70 -106 140 -156 219 -156 l36 0 -50 24 c-100 46 -177 162 -222 335
-34 131 -36 336 -4 455 39 148 86 224 169 277 36 23 39 27 18 25 -14 0 -40 -4
-58 -7z"/>
<path d="M1993 3305 c-29 -15 -70 -48 -93 -75 -41 -49 -106 -175 -114 -222 -3
-15 -7 -31 -10 -36 -19 -32 -29 -312 -13 -395 23 -122 96 -262 163 -314 36
-27 102 -49 148 -48 l30 0 1 86 c0 81 3 92 42 171 98 197 327 362 563 404 55
9 164 6 212 -6 24 -7 63 -23 87 -37 l44 -26 -24 34 c-57 81 -90 112 -149 141
-60 30 -198 31 -285 4 -327 -103 -578 -438 -520 -696 4 -19 12 -41 18 -48 5
-7 7 -15 5 -18 -7 -6 -47 74 -54 107 -10 48 -4 146 11 204 20 77 80 195 123
246 20 23 30 44 26 51 -4 7 -4 10 1 6 4 -4 34 17 66 46 69 64 126 104 201 139
113 54 250 67 331 34 20 -9 37 -14 37 -12 0 12 -121 92 -167 110 -107 44 -255
8 -383 -93 -80 -62 -164 -158 -154 -174 4 -6 3 -8 -3 -5 -14 9 -68 -86 -102
-178 -66 -181 -59 -335 21 -447 l31 -43 -33 30 c-72 67 -100 154 -96 300 6
181 62 326 186 475 109 132 230 201 358 202 l63 1 -53 19 c-108 40 -143 48
-186 43 -125 -14 -265 -135 -344 -295 -41 -84 -65 -150 -84 -231 -3 -13 -8
-71 -10 -129 -6 -173 34 -291 126 -372 40 -36 41 -39 13 -24 -172 87 -237 390
-148 686 60 199 198 361 330 386 20 3 34 8 32 10 -2 2 -46 6 -98 10 -88 5 -97
4 -146 -21z"/>
<path d="M1545 3244 c-107 -37 -142 -87 -146 -209 -11 -346 265 -856 463 -855
55 0 62 15 15 27 -93 25 -205 166 -275 345 -51 131 -73 236 -78 368 -5 159 20
260 80 323 32 32 31 32 -59 1z"/>
<path d="M1273 3120 c-80 -45 -93 -61 -93 -117 0 -42 26 -154 38 -163 4 -3 8
-15 9 -26 3 -30 66 -161 124 -260 133 -226 324 -424 408 -424 11 0 32 5 48 11
l28 11 -54 20 c-105 40 -242 205 -340 412 -45 94 -101 248 -104 289 -1 9 -4
17 -7 17 -6 0 -7 17 -10 120 -2 50 3 87 13 113 9 20 15 37 14 37 -1 0 -35 -18
-74 -40z"/>
<path d="M1035 2961 c-87 -69 -88 -71 -70 -120 59 -168 489 -663 662 -763 46
-26 48 -27 74 -10 31 19 37 35 14 38 -86 13 -310 250 -460 489 -105 167 -176
344 -160 395 4 11 5 20 3 20 -2 -1 -30 -22 -63 -49z"/>
<path d="M819 2762 c-24 -26 -53 -58 -64 -71 l-20 -23 25 -20 c14 -11 41 -34
60 -52 37 -34 314 -266 389 -326 24 -19 48 -40 55 -45 15 -15 226 -185 262
-212 74 -56 66 -54 96 -26 l28 27 -54 35 c-173 115 -586 532 -696 703 l-37 57
-44 -47z"/>
<path d="M2705 2788 c-339 -83 -569 -290 -587 -530 -3 -31 -1 -55 4 -52 4 3 8
-5 8 -17 0 -35 7 -19 14 31 13 96 89 202 198 275 23 17 45 33 48 36 11 12 178
78 235 93 220 55 415 32 523 -60 23 -19 42 -30 42 -23 0 6 -16 44 -35 84 -37
78 -72 111 -152 146 -55 25 -228 34 -298 17z"/>
<path d="M610 2495 c-27 -41 -50 -77 -50 -80 0 -3 9 -5 19 -5 58 0 350 -138
536 -253 251 -156 394 -265 395 -302 1 -13 50 47 50 60 0 16 -61 66 -285 234
-297 224 -582 421 -607 421 -4 0 -30 -34 -58 -75z"/>
<path d="M2662 2545 c-93 -17 -233 -65 -239 -82 -3 -7 -9 -10 -14 -7 -13 7
-107 -56 -162 -109 -55 -54 -97 -135 -97 -189 0 -44 16 -51 25 -10 11 52 101
132 198 177 223 101 557 106 754 9 51 -24 120 -87 135 -122 7 -16 6 -2 -9 98
-18 122 -90 190 -244 230 -83 22 -246 24 -347 5z"/>
<path d="M521 2347 c-13 -16 -81 -161 -77 -165 2 -1 14 2 27 7 23 8 121 7 179
-3 14 -2 61 -14 105 -26 295 -80 647 -267 702 -374 l15 -28 14 27 c22 42 17
59 -28 104 -45 44 -210 160 -288 202 -25 13 -47 26 -50 29 -36 36 -394 198
-500 226 -67 17 -85 18 -99 1z"/>
<path d="M2598 2305 c-2 -2 -25 -6 -53 -9 -221 -29 -384 -137 -385 -256 0 -24
0 -24 28 7 33 38 87 66 174 91 56 17 93 19 230 17 173 -3 190 -5 308 -36 180
-47 296 -113 349 -199 l21 -35 1 35 c6 133 2 169 -22 205 -45 68 -184 142
-304 162 -16 3 -50 9 -75 13 -40 8 -265 11 -272 5z"/>
<path d="M458 2098 c-20 -5 -43 -17 -51 -26 -13 -15 -57 -140 -57 -163 0 -6
19 1 43 14 59 35 133 49 245 50 236 0 500 -71 670 -180 64 -41 97 -74 116
-118 l13 -30 7 43 c11 62 -20 106 -129 177 -151 98 -432 202 -625 230 -74 11
-193 13 -232 3z"/>
<path d="M2384 2068 c-134 -15 -204 -49 -229 -111 -22 -54 -20 -57 25 -35 149
74 654 -47 900 -215 55 -38 84 -66 108 -106 l18 -30 24 95 c23 95 23 97 4 131
-87 162 -538 306 -850 271z"/>
<path d="M632 1902 c-29 -2 -50 -7 -47 -12 3 -4 -3 -6 -14 -3 -28 7 -135 -23
-181 -52 -56 -35 -69 -61 -78 -152 l-8 -81 46 48 c53 57 143 103 251 127 78
18 333 24 419 11 186 -29 366 -126 387 -207 l6 -25 9 23 c11 32 -20 98 -66
139 -134 117 -456 199 -724 184z"/>
<path d="M2163 1869 c-24 -7 -39 -21 -53 -49 -11 -22 -20 -41 -20 -42 0 -2 18
-4 40 -5 22 -1 65 -9 95 -18 31 -9 60 -13 64 -10 5 3 11 1 13 -4 1 -5 48 -28
103 -51 253 -107 519 -264 622 -367 29 -29 54 -53 57 -53 2 0 20 39 41 86 32
76 35 89 25 115 -46 109 -381 289 -680 365 -147 38 -250 49 -307 33z"/>
<path d="M785 1743 c-161 -18 -339 -88 -416 -165 -51 -52 -67 -98 -62 -181 5
-73 21 -137 22 -89 3 82 115 199 256 267 136 65 243 89 400 89 160 1 221 -10
314 -58 41 -21 111 -91 111 -111 0 -9 -13 0 -35 24 -40 44 -124 85 -205 100
-66 12 -225 7 -295 -8 -293 -66 -525 -252 -525 -421 0 -41 33 -164 49 -182 3
-4 7 19 8 50 5 139 134 299 323 400 246 132 525 141 655 20 17 -15 24 -28 18
-28 -7 0 -13 4 -13 9 0 4 -28 21 -62 37 -58 27 -72 29 -178 28 -103 0 -125 -4
-209 -32 -281 -97 -496 -328 -493 -531 0 -31 8 -73 17 -94 14 -35 84 -147 90
-147 2 0 -3 21 -11 47 -18 59 -10 156 18 232 20 53 70 142 93 167 5 6 24 29
40 50 17 21 39 45 49 54 10 8 33 27 50 41 53 45 160 106 237 135 63 24 90 28
179 28 90 1 111 -2 149 -21 25 -13 47 -21 49 -18 12 12 11 75 -3 111 -31 83
-148 153 -310 186 -50 10 -252 17 -310 11z"/>
<path d="M2041 1692 c-11 -16 -21 -33 -23 -39 -2 -6 31 -35 72 -64 76 -53 451
-329 460 -339 3 -3 39 -31 80 -62 41 -30 118 -90 170 -132 52 -42 98 -76 101
-76 9 0 109 154 109 168 0 66 -588 444 -854 549 -77 30 -90 29 -115 -5z"/>
<path d="M1940 1564 l-31 -35 21 -41 c86 -165 567 -665 717 -744 l35 -19 69
73 69 74 -27 21 c-35 26 -166 130 -173 137 -3 3 -30 25 -60 50 -56 46 -76 63
-120 100 -14 12 -47 40 -75 63 -27 23 -56 49 -65 57 -8 8 -31 28 -50 44 -44
35 -203 180 -246 223 l-32 32 -32 -35z"/>
<path d="M1833 1471 c-13 -11 -27 -31 -33 -46 -39 -103 175 -497 404 -742 73
-79 176 -153 211 -153 12 0 57 25 100 56 l77 57 -39 17 c-64 28 -182 132 -308
271 -179 195 -322 397 -362 508 -10 28 -20 51 -23 51 -3 -1 -15 -9 -27 -19z"/>
<path d="M1238 1454 c-2 -1 -21 -4 -43 -7 -140 -19 -272 -92 -393 -217 -163
-168 -238 -382 -190 -540 17 -53 30 -73 81 -123 63 -60 122 -102 85 -61 -36
41 -61 116 -63 195 -4 118 28 235 99 363 20 36 37 68 37 70 0 3 31 35 67 73
163 166 309 229 465 199 45 -8 47 -2 7 19 -25 13 -145 36 -152 29z"/>
<path d="M1416 1431 c-4 -5 -2 -12 4 -16 22 -14 -3 -24 -51 -21 -89 6 -190
-31 -279 -102 -56 -45 -135 -129 -152 -162 -7 -14 -16 -27 -20 -30 -14 -11
-77 -150 -97 -215 -27 -86 -34 -222 -16 -299 16 -68 53 -134 97 -172 27 -22
167 -94 184 -94 2 0 -13 16 -35 35 -129 117 -153 395 -54 642 79 200 242 357
384 371 27 2 49 10 49 16 0 6 4 4 10 -4 17 -28 18 -5 0 28 -10 18 -21 29 -24
23z"/>
<path d="M1714 1395 c-48 -29 -66 -74 -64 -168 1 -34 1 -70 1 -79 0 -10 3 -18
7 -18 4 0 8 -17 9 -38 3 -45 52 -199 89 -279 105 -225 252 -402 357 -431 34
-9 45 -6 127 33 49 25 90 46 90 47 0 2 -12 5 -26 6 -64 5 -192 121 -296 267
-105 148 -219 370 -244 475 -4 19 -9 42 -11 50 -9 36 -11 115 -2 137 5 12 7
23 6 23 -1 0 -20 -11 -43 -25z"/>
<path d="M1595 1353 c-86 -46 -124 -154 -123 -343 1 -308 139 -621 312 -712
46 -24 105 -21 198 9 l57 19 -50 17 c-152 55 -342 374 -389 657 -7 41 -18 78
-24 82 -6 5 -7 8 -1 8 6 0 10 29 11 68 0 90 10 133 39 176 27 39 18 45 -30 19z"/>
<path d="M1374 1349 c-51 -15 -126 -71 -176 -134 -49 -60 -117 -189 -138 -260
-37 -130 -46 -307 -20 -417 27 -114 98 -216 176 -253 32 -15 194 -48 194 -39
0 2 -18 13 -39 24 -117 59 -199 253 -203 478 -3 217 64 412 184 530 40 40 122
82 135 69 3 -4 -5 -11 -19 -16 -72 -27 -164 -179 -194 -321 -33 -155 -15 -390
41 -529 67 -164 158 -242 282 -240 57 0 157 16 118 18 -33 2 -123 69 -160 119
-54 75 -101 179 -130 292 -37 142 -43 350 -14 454 30 111 71 178 130 215 25
16 24 16 -55 18 -45 0 -95 -3 -112 -8z"/>
</g>
</svg>
